<svg width="415" height="442" viewBox="0 0 415 442" fill="none" xmlns="http://www.w3.org/2000/svg">
<g clip-path="url(#clip0_486_901)">
<g filter="url(#filter0_i_486_901)">
<path d="M13.7204 193.47C14.9153 275.755 102.601 341.201 209.571 339.648C316.542 338.094 402.29 270.13 401.095 187.845C399.9 105.56 312.215 40.1137 205.244 41.6671C179.417 42.0422 154.826 46.2887 132.398 53.6736C91.1919 67.2415 57.2843 91.4027 36.412 121.61C21.5924 143.058 13.3441 167.554 13.7204 193.47Z" fill="url(#paint0_linear_486_901)"/>
<path d="M48.2046 6.64066C79.2903 -5.73384 132.398 53.6736 132.398 53.6736C91.1919 67.2415 57.2843 91.4027 36.412 121.61C36.412 121.61 17.1188 19.0152 48.2046 6.64066Z" fill="url(#paint1_linear_486_901)"/>
<path d="M358.135 2.24785C326.703 -9.2188 278.381 51.6616 278.381 51.6616C319.964 64.0272 354.558 87.1937 376.299 116.782C376.299 116.782 389.567 13.7145 358.135 2.24785Z" fill="url(#paint2_linear_486_901)"/>
<ellipse cx="13.4105" cy="25.331" rx="13.4105" ry="25.331" transform="matrix(0.999895 -0.0145199 -0.0145199 -0.999895 138.031 219.307)" fill="black"/>
<ellipse cx="13.4105" cy="25.331" rx="13.4105" ry="25.331" transform="matrix(0.999895 -0.0145199 -0.0145199 -0.999895 249.715 219.377)" fill="black"/>
<path d="M191.973 251.035C191.973 251.035 201.228 250.138 207.215 244.04C212.643 248.977 221.507 251.035 221.507 251.035" stroke="black" stroke-width="5.96024" stroke-linecap="round" stroke-linejoin="round"/>
</g>
<path d="M71.4491 305.515H67.0029C65.9051 305.515 65.0708 305.053 64.4999 304.131C64.2144 303.648 64.0717 303.132 64.0717 302.583C64.0717 301.486 64.5328 300.651 65.455 300.08C65.938 299.795 66.454 299.652 67.0029 299.652H84.9195C85.9953 299.652 86.8297 300.113 87.4225 301.035C87.686 301.518 87.8287 302.034 87.8507 302.583C87.8507 303.681 87.3786 304.516 86.4345 305.086C85.9514 305.372 85.4464 305.515 84.9195 305.515H80.4074C79.7706 305.515 79.3315 305.811 79.09 306.404C79.0461 306.579 79.0131 306.755 78.9912 306.931V329.656C78.9912 330.732 78.5301 331.566 77.6079 332.159C77.1249 332.422 76.6089 332.565 76.06 332.587H75.7965C74.6987 332.587 73.8643 332.115 73.2935 331.171C73.008 330.688 72.8653 330.183 72.8653 329.656V306.931C72.8653 306.294 72.5689 305.855 71.9761 305.613C71.8004 305.547 71.6248 305.515 71.4491 305.515ZM94.0818 299.685C95.1576 299.685 95.97 300.157 96.5189 301.101C96.7824 301.54 96.9142 302.012 96.9142 302.517V310.092C96.9142 310.312 97.0239 310.422 97.2435 310.422C97.3313 310.422 97.4082 310.389 97.474 310.323C98.6377 309.115 99.6368 308.336 100.471 307.985C101.218 307.699 102.096 307.557 103.106 307.557C107.146 307.557 109.956 309.072 111.537 312.102C112.394 313.748 112.822 315.724 112.822 318.03V329.755C112.822 330.83 112.361 331.643 111.438 332.192C110.977 332.455 110.494 332.587 109.989 332.587H111.01C109.934 332.587 109.122 332.126 108.573 331.204C108.332 330.743 108.2 330.26 108.178 329.755V318.656C108.178 315.472 107.025 313.507 104.72 312.76C104.083 312.563 103.391 312.464 102.645 312.464C100.603 312.464 99.0659 313.298 98.0339 314.967C97.3094 316.109 96.9471 317.492 96.9471 319.117V329.755C96.9471 330.83 96.486 331.643 95.5638 332.192C95.1027 332.455 94.6197 332.587 94.1147 332.587H94.0818C93.0059 332.587 92.1935 332.126 91.6446 331.204C91.3811 330.743 91.2494 330.26 91.2494 329.755V302.517C91.2494 301.442 91.7105 300.629 92.6326 300.08C93.0937 299.839 93.5768 299.707 94.0818 299.685ZM123.352 316.185H136.196C136.569 316.185 136.789 316.01 136.855 315.658C136.855 315.549 136.844 315.439 136.822 315.329C135.856 312.716 133.902 311.256 130.959 310.949C130.586 310.905 130.213 310.883 129.84 310.883C127.271 310.883 125.229 311.838 123.714 313.748C123.341 314.231 123.022 314.747 122.759 315.296C122.583 315.647 122.671 315.922 123.022 316.12C123.132 316.163 123.242 316.185 123.352 316.185ZM116.369 318.82C116.457 315.241 117.731 312.189 120.19 309.664C122.583 307.205 125.514 305.866 128.983 305.646C129.466 305.624 129.949 305.613 130.433 305.613C134.165 305.767 137.228 307.117 139.621 309.664C141.971 312.189 143.145 315.285 143.145 318.952V319.215C143.145 320.05 142.772 320.643 142.026 320.994C141.74 321.126 141.455 321.192 141.169 321.192H122.923C122.572 321.192 122.363 321.367 122.298 321.718C122.276 321.85 122.287 321.96 122.331 322.048C123.121 324.419 124.658 326.011 126.941 326.823C127.908 327.153 128.939 327.317 130.037 327.317C132.562 327.295 134.571 326.406 136.064 324.65C136.723 323.837 137.59 323.541 138.666 323.76C138.996 323.826 139.281 323.936 139.523 324.09C140.467 324.617 140.928 325.418 140.906 326.494C140.884 327.219 140.653 327.844 140.214 328.371C137.645 331.16 134.253 332.565 130.037 332.587C127.337 332.587 124.921 331.972 122.792 330.743C120.684 329.513 119.07 327.855 117.95 325.769C116.83 323.662 116.303 321.345 116.369 318.82ZM149.407 305.844C150.549 305.844 151.416 306.338 152.009 307.326C152.317 307.831 152.47 308.358 152.47 308.907C152.47 309.104 152.558 309.181 152.734 309.137C152.8 309.093 152.855 309.061 152.898 309.039C154.194 306.909 156.335 305.844 159.321 305.844C159.628 305.844 159.935 305.855 160.243 305.877C161.363 305.965 162.186 306.525 162.713 307.557C163.108 308.369 163.141 309.203 162.812 310.06C162.417 311.048 161.692 311.662 160.638 311.904C160.243 311.97 159.848 311.97 159.452 311.904C158.991 311.838 158.508 311.805 158.003 311.805C154.995 311.805 153.228 313.232 152.701 316.087C152.569 316.767 152.503 317.514 152.503 318.326V329.524C152.503 330.666 152.02 331.533 151.054 332.126C150.549 332.411 150.011 332.565 149.44 332.587H149.407C148.266 332.587 147.387 332.093 146.773 331.105C146.487 330.6 146.344 330.073 146.344 329.524V308.907C146.344 307.765 146.838 306.898 147.826 306.305C148.31 306.02 148.836 305.866 149.407 305.844ZM173.043 316.185H185.888C186.261 316.185 186.481 316.01 186.546 315.658C186.546 315.549 186.535 315.439 186.514 315.329C185.547 312.716 183.593 311.256 180.651 310.949C180.278 310.905 179.905 310.883 179.531 310.883C176.962 310.883 174.92 311.838 173.405 313.748C173.032 314.231 172.714 314.747 172.45 315.296C172.275 315.647 172.363 315.922 172.714 316.12C172.824 316.163 172.933 316.185 173.043 316.185ZM166.061 318.82C166.149 315.241 167.422 312.189 169.881 309.664C172.275 307.205 175.206 305.866 178.675 305.646C179.158 305.624 179.641 305.613 180.124 305.613C183.857 305.767 186.92 307.117 189.313 309.664C191.662 312.189 192.837 315.285 192.837 318.952V319.215C192.837 320.05 192.464 320.643 191.717 320.994C191.432 321.126 191.146 321.192 190.861 321.192H172.615C172.264 321.192 172.055 321.367 171.989 321.718C171.967 321.85 171.978 321.96 172.022 322.048C172.813 324.419 174.35 326.011 176.633 326.823C177.599 327.153 178.631 327.317 179.729 327.317C182.254 327.295 184.263 326.406 185.756 324.65C186.415 323.837 187.282 323.541 188.358 323.76C188.687 323.826 188.973 323.936 189.214 324.09C190.158 324.617 190.619 325.418 190.597 326.494C190.575 327.219 190.345 327.844 189.906 328.371C187.337 331.16 183.945 332.565 179.729 332.587C177.028 332.587 174.613 331.972 172.483 330.743C170.375 329.513 168.762 327.855 167.642 325.769C166.522 323.662 165.995 321.345 166.061 318.82ZM225.543 319.446C225.609 317.009 224.808 314.989 223.139 313.386C221.69 312.025 219.944 311.344 217.902 311.344C215.531 311.344 213.577 312.233 212.04 314.012C210.81 315.483 210.185 317.217 210.163 319.215C210.163 321.653 211.03 323.651 212.765 325.21C214.236 326.505 215.97 327.153 217.968 327.153C220.23 327.131 222.118 326.242 223.633 324.485C224.863 323.014 225.499 321.334 225.543 319.446ZM204.366 319.281C204.366 315.11 205.739 311.761 208.483 309.236C210.942 307.106 213.797 306.02 217.046 305.976C220.076 305.976 222.59 306.942 224.588 308.874C224.808 309.072 225.005 309.269 225.181 309.467C225.203 309.467 225.225 309.456 225.247 309.434C225.247 308.336 225.719 307.502 226.663 306.931C227.124 306.645 227.64 306.503 228.211 306.503C229.309 306.503 230.143 306.975 230.714 307.919C230.999 308.402 231.142 308.907 231.142 309.434V329.096C231.142 330.194 230.67 331.039 229.726 331.632C229.243 331.895 228.738 332.038 228.211 332.06C227.091 332.06 226.246 331.588 225.675 330.644C225.39 330.161 225.247 329.645 225.247 329.096V328.832C225.225 328.832 225.203 328.832 225.181 328.832C223.534 330.874 221.317 332.082 218.528 332.455C218.001 332.543 217.474 332.587 216.947 332.587C213.939 332.587 211.261 331.588 208.911 329.59C206.145 327.241 204.641 324.134 204.399 320.269C204.377 319.94 204.366 319.611 204.366 319.281ZM237.791 305.844C238.933 305.844 239.8 306.338 240.393 307.326C240.7 307.831 240.854 308.358 240.854 308.907C240.854 309.104 240.942 309.181 241.117 309.137C241.183 309.093 241.238 309.061 241.282 309.039C242.577 306.909 244.718 305.844 247.704 305.844C248.012 305.844 248.319 305.855 248.626 305.877C249.746 305.965 250.57 306.525 251.097 307.557C251.492 308.369 251.525 309.203 251.195 310.06C250.8 311.048 250.076 311.662 249.022 311.904C248.626 311.97 248.231 311.97 247.836 311.904C247.375 311.838 246.892 311.805 246.387 311.805C243.379 311.805 241.611 313.232 241.084 316.087C240.953 316.767 240.887 317.514 240.887 318.326V329.524C240.887 330.666 240.404 331.533 239.438 332.126C238.933 332.411 238.395 332.565 237.824 332.587H237.791C236.649 332.587 235.771 332.093 235.156 331.105C234.871 330.6 234.728 330.073 234.728 329.524V308.907C234.728 307.765 235.222 306.898 236.21 306.305C236.693 306.02 237.22 305.866 237.791 305.844ZM261.427 316.185H274.271C274.645 316.185 274.864 316.01 274.93 315.658C274.93 315.549 274.919 315.439 274.897 315.329C273.931 312.716 271.977 311.256 269.035 310.949C268.661 310.905 268.288 310.883 267.915 310.883C265.346 310.883 263.304 311.838 261.789 313.748C261.416 314.231 261.097 314.747 260.834 315.296C260.658 315.647 260.746 315.922 261.097 316.12C261.207 316.163 261.317 316.185 261.427 316.185ZM254.445 318.82C254.532 315.241 255.806 312.189 258.265 309.664C260.658 307.205 263.589 305.866 267.059 305.646C267.542 305.624 268.025 305.613 268.508 305.613C272.24 305.767 275.303 307.117 277.697 309.664C280.046 312.189 281.221 315.285 281.221 318.952V319.215C281.221 320.05 280.847 320.643 280.101 320.994C279.815 321.126 279.53 321.192 279.244 321.192H260.999C260.647 321.192 260.439 321.367 260.373 321.718C260.351 321.85 260.362 321.96 260.406 322.048C261.196 324.419 262.733 326.011 265.017 326.823C265.983 327.153 267.015 327.317 268.113 327.317C270.638 327.295 272.647 326.406 274.14 324.65C274.798 323.837 275.666 323.541 276.741 323.76C277.071 323.826 277.356 323.936 277.598 324.09C278.542 324.617 279.003 325.418 278.981 326.494C278.959 327.219 278.729 327.844 278.289 328.371C275.72 331.16 272.328 332.565 268.113 332.587C265.412 332.587 262.997 331.972 260.867 330.743C258.759 329.513 257.145 327.855 256.025 325.769C254.906 323.662 254.379 321.345 254.445 318.82ZM296.9 306.404H297.492C298.085 306.404 298.48 306.678 298.678 307.227C298.722 307.359 298.744 307.491 298.744 307.622V308.775C298.744 308.995 298.854 309.093 299.073 309.072C299.161 309.05 299.227 309.017 299.271 308.973C301.181 306.909 303.618 305.866 306.582 305.844C310.82 305.844 313.795 307.414 315.508 310.554C316.474 312.332 316.957 314.495 316.957 317.042V329.557C316.957 330.677 316.485 331.533 315.541 332.126C315.036 332.411 314.509 332.565 313.96 332.587H313.861C312.741 332.587 311.885 332.104 311.292 331.138C310.985 330.633 310.831 330.106 310.831 329.557V317.667C310.831 314.374 309.645 312.31 307.274 311.476C306.571 311.212 305.792 311.081 304.936 311.081C302.718 311.081 301.049 311.981 299.93 313.781C299.183 314.989 298.799 316.46 298.777 318.194V329.557C298.777 330.677 298.305 331.533 297.361 332.126C296.856 332.411 296.329 332.565 295.78 332.587C294.66 332.587 293.804 332.104 293.211 331.138C292.904 330.633 292.75 330.106 292.75 329.557V310.554C292.75 309.104 293.343 307.974 294.528 307.161C295.253 306.656 296.043 306.404 296.9 306.404ZM341.059 319.347C341.059 316.954 340.214 315 338.523 313.485C337.14 312.233 335.515 311.597 333.649 311.575C331.343 311.575 329.466 312.464 328.017 314.242C326.831 315.691 326.239 317.393 326.239 319.347C326.239 321.675 327.062 323.596 328.709 325.111C330.114 326.384 331.761 327.032 333.649 327.054C335.713 327.054 337.458 326.296 338.886 324.781C340.335 323.266 341.059 321.455 341.059 319.347ZM320.442 319.347C320.442 315.79 321.628 312.738 323.999 310.191C326.304 307.71 329.17 306.338 332.595 306.074C332.946 306.052 333.298 306.042 333.649 306.042C337.14 306.042 340.137 307.216 342.64 309.566C345.121 311.893 346.504 314.769 346.79 318.194C346.834 318.59 346.856 318.974 346.856 319.347C346.856 322.816 345.681 325.813 343.332 328.338C341.048 330.819 338.227 332.214 334.868 332.521C334.45 332.565 334.044 332.587 333.649 332.587C330.158 332.587 327.15 331.412 324.625 329.063C322.188 326.758 320.815 323.925 320.508 320.566C320.464 320.149 320.442 319.742 320.442 319.347ZM17.7465 361.91C18.2735 358.66 19.8324 355.982 22.4232 353.874C24.9922 351.81 27.9014 350.8 31.151 350.844C34.8616 350.91 37.9575 352.216 40.4386 354.763C40.724 355.049 40.9875 355.345 41.229 355.652C41.9536 356.531 42.0963 357.497 41.6572 358.551C41.3498 359.253 40.8558 359.747 40.1751 360.033L40.0763 360.099C39.0443 360.538 38.0782 360.384 37.178 359.637C37.0024 359.484 36.8487 359.33 36.7169 359.176C35.2459 357.354 33.3247 356.443 30.9534 356.443C28.7577 356.421 26.9024 357.233 25.3874 358.88C24.3774 360 23.7406 361.284 23.4772 362.733C23.038 365.192 23.565 367.344 25.058 369.189C26.6389 371.011 28.615 371.944 30.9863 371.988C33.4015 371.988 35.3337 371.044 36.7828 369.156C37.4854 368.255 38.3747 367.871 39.4505 368.003C39.714 368.047 39.9665 368.113 40.208 368.201L40.3068 368.266C41.2949 368.684 41.8548 369.419 41.9865 370.473C42.0963 371.242 41.9206 371.933 41.4596 372.548C39.1761 375.534 36.1022 377.192 32.2378 377.521C31.7767 377.565 31.3266 377.587 30.8875 377.587C27.3086 377.587 24.2456 376.379 21.6987 373.964C19.2395 371.637 17.8673 368.771 17.5818 365.368C17.494 364.226 17.5489 363.074 17.7465 361.91ZM65.8575 364.347C65.8575 361.954 65.0122 360 63.3216 358.485C61.9383 357.233 60.3135 356.597 58.4472 356.575C56.1418 356.575 54.2645 357.464 52.8154 359.242C51.6297 360.691 51.0369 362.393 51.0369 364.347C51.0369 366.675 51.8603 368.596 53.507 370.111C54.9122 371.384 56.559 372.032 58.4472 372.054C60.5111 372.054 62.2567 371.296 63.6838 369.781C65.133 368.266 65.8575 366.455 65.8575 364.347ZM45.2404 364.347C45.2404 360.79 46.426 357.738 48.7973 355.191C51.1028 352.71 53.9681 351.338 57.3933 351.074C57.7446 351.052 58.0959 351.042 58.4472 351.042C61.9383 351.042 64.9354 352.216 67.4384 354.566C69.9195 356.893 71.3028 359.769 71.5882 363.194C71.6321 363.59 71.6541 363.974 71.6541 364.347C71.6541 367.816 70.4794 370.813 68.13 373.338C65.8466 375.819 63.0252 377.214 59.6658 377.521C59.2486 377.565 58.8424 377.587 58.4472 377.587C54.9561 377.587 51.9481 376.412 49.4231 374.063C46.9859 371.758 45.6136 368.925 45.3062 365.566C45.2623 365.149 45.2404 364.742 45.2404 364.347ZM79.0443 351.404H79.6372C80.23 351.404 80.6252 351.678 80.8228 352.227C80.8667 352.359 80.8887 352.491 80.8887 352.622V353.775C80.8887 353.995 80.9985 354.093 81.218 354.072C81.3059 354.05 81.3717 354.017 81.4156 353.973C83.3259 351.909 85.763 350.866 88.7272 350.844C92.9648 350.844 95.9399 352.414 97.6525 355.554C98.6186 357.332 99.1016 359.495 99.1016 362.042V374.557C99.1016 375.677 98.6296 376.533 97.6854 377.126C97.1804 377.411 96.6535 377.565 96.1046 377.587H96.0057C94.886 377.587 94.0297 377.104 93.4368 376.138C93.1294 375.633 92.9757 375.106 92.9757 374.557V362.667C92.9757 359.374 91.7901 357.31 89.4188 356.476C88.7162 356.212 87.9367 356.081 87.0804 356.081C84.8628 356.081 83.1941 356.981 82.0743 358.781C81.3278 359.989 80.9436 361.46 80.9216 363.194V374.557C80.9216 375.677 80.4495 376.533 79.5054 377.126C79.0004 377.411 78.4735 377.565 77.9245 377.587C76.8048 377.587 75.9485 377.104 75.3556 376.138C75.0482 375.633 74.8945 375.106 74.8945 374.557V355.554C74.8945 354.104 75.4874 352.974 76.673 352.161C77.3976 351.656 78.188 351.404 79.0443 351.404ZM105.189 351.733H106.407C106.715 351.645 106.89 351.47 106.934 351.206V348.934C106.956 348.165 107.275 347.561 107.889 347.122L111.183 344.883C111.666 344.553 112.127 344.586 112.566 344.982C112.808 345.223 112.939 345.508 112.961 345.838V351.206C112.961 351.492 113.093 351.656 113.356 351.7C113.4 351.7 113.444 351.711 113.488 351.733H115.53C116.562 351.733 117.342 352.172 117.869 353.051C118.088 353.468 118.209 353.918 118.231 354.401C118.231 355.411 117.781 356.179 116.88 356.706C116.463 356.948 116.013 357.069 115.53 357.069H113.488C113.181 357.134 113.005 357.31 112.961 357.596V366.751C112.961 368.903 113.225 370.286 113.752 370.901C114.059 371.274 114.487 371.538 115.036 371.692C116.375 372.065 117.32 372.91 117.869 374.228C118.088 374.777 118.209 375.347 118.231 375.94V377.587H117.375C113.488 377.587 110.799 376.862 109.305 375.413C107.812 373.986 107.022 371.384 106.934 367.608C106.934 367.322 106.934 367.048 106.934 366.784V357.596C106.868 357.31 106.693 357.134 106.407 357.069H105.189C104.179 357.069 103.41 356.629 102.883 355.751C102.642 355.312 102.521 354.862 102.521 354.401C102.521 353.369 102.96 352.6 103.838 352.095C104.277 351.854 104.728 351.733 105.189 351.733ZM124.819 350.844C125.961 350.844 126.828 351.338 127.421 352.326C127.728 352.831 127.882 353.358 127.882 353.907C127.882 354.104 127.97 354.181 128.145 354.137C128.211 354.093 128.266 354.061 128.31 354.039C129.605 351.909 131.746 350.844 134.732 350.844C135.04 350.844 135.347 350.855 135.654 350.877C136.774 350.965 137.597 351.525 138.124 352.557C138.52 353.369 138.553 354.203 138.223 355.06C137.828 356.048 137.103 356.662 136.05 356.904C135.654 356.97 135.259 356.97 134.864 356.904C134.403 356.838 133.92 356.805 133.415 356.805C130.407 356.805 128.639 358.232 128.112 361.087C127.981 361.767 127.915 362.514 127.915 363.326V374.524C127.915 375.666 127.432 376.533 126.466 377.126C125.961 377.411 125.423 377.565 124.852 377.587H124.819C123.677 377.587 122.799 377.093 122.184 376.105C121.899 375.6 121.756 375.073 121.756 374.524V353.907C121.756 352.765 122.25 351.898 123.238 351.305C123.721 351.02 124.248 350.866 124.819 350.844ZM141.472 347.386C141.472 346.354 141.912 345.563 142.79 345.014C143.251 344.751 143.734 344.619 144.239 344.619C145.271 344.619 146.061 345.058 146.61 345.937C146.874 346.398 147.006 346.881 147.006 347.386C147.006 348.418 146.566 349.208 145.688 349.757C145.227 350.021 144.744 350.152 144.239 350.152C143.207 350.152 142.417 349.713 141.868 348.835C141.604 348.374 141.472 347.891 141.472 347.386ZM144.107 353.61C145.161 353.61 145.952 354.061 146.479 354.961C146.742 355.422 146.874 355.894 146.874 356.377V374.82C146.874 375.874 146.424 376.665 145.523 377.192C145.084 377.455 144.612 377.587 144.107 377.587C143.075 377.587 142.285 377.137 141.736 376.237C141.494 375.798 141.374 375.325 141.374 374.82V356.377C141.374 355.323 141.824 354.533 142.724 354.006C143.163 353.764 143.624 353.632 144.107 353.61ZM170.974 364.182C170.974 361.767 170.106 359.78 168.372 358.221C166.901 356.904 165.144 356.267 163.102 356.311C160.863 356.355 158.996 357.266 157.503 359.045C156.296 360.538 155.681 362.228 155.659 364.117C155.659 366.576 156.504 368.596 158.195 370.177C159.622 371.472 161.324 372.131 163.3 372.153C165.452 372.153 167.263 371.384 168.734 369.847C170.227 368.31 170.974 366.422 170.974 364.182ZM155.889 374.755C155.889 375.655 155.494 376.324 154.704 376.764C154.352 376.939 153.979 377.038 153.584 377.06H152.332C151.41 377.06 150.741 376.654 150.323 375.841C150.126 375.49 150.027 375.128 150.027 374.755V347.616C150.027 346.518 150.499 345.684 151.443 345.113C151.926 344.828 152.442 344.674 152.991 344.652C154.089 344.652 154.923 345.124 155.494 346.068C155.78 346.551 155.922 347.067 155.922 347.616V353.676C155.922 353.918 156.043 354.05 156.285 354.072C156.416 354.05 156.515 354.006 156.581 353.94C158.447 352.052 160.819 351.052 163.695 350.943C163.871 350.921 164.046 350.91 164.222 350.91C167.428 350.91 170.205 351.964 172.554 354.072C175.321 356.75 176.737 360.153 176.803 364.281C176.803 368.321 175.453 371.615 172.752 374.162C170.512 376.27 167.889 377.4 164.881 377.554C164.683 377.576 164.485 377.587 164.288 377.587C161.104 377.565 158.524 376.533 156.548 374.491C156.351 374.293 156.164 374.293 155.988 374.491C155.922 374.579 155.889 374.667 155.889 374.755ZM198.9 377.027C198.417 377.027 198.109 376.808 197.978 376.368C197.934 376.259 197.912 376.149 197.912 376.039V375.018C197.912 374.798 197.802 374.689 197.582 374.689C197.473 374.667 197.374 374.7 197.286 374.788C195.529 376.632 193.235 377.565 190.403 377.587C186.494 377.587 183.673 376.127 181.938 373.207C180.862 371.362 180.324 369.09 180.324 366.389V353.874C180.324 352.754 180.808 351.898 181.774 351.305C182.257 351.02 182.784 350.866 183.354 350.844H183.42C184.562 350.844 185.429 351.327 186.022 352.293C186.308 352.798 186.45 353.325 186.45 353.874V365.763C186.45 369.386 187.757 371.516 190.37 372.153C190.897 372.284 191.456 372.35 192.049 372.35C194.267 372.35 195.892 371.395 196.924 369.485C197.56 368.321 197.879 366.905 197.879 365.236V353.874C197.879 352.754 198.351 351.898 199.295 351.305C199.8 351.02 200.327 350.866 200.876 350.844C202.018 350.844 202.885 351.327 203.478 352.293C203.763 352.798 203.906 353.325 203.906 353.874V372.021C203.906 373.668 203.258 374.996 201.963 376.006C201.04 376.687 200.019 377.027 198.9 377.027ZM209.943 351.733H211.162C211.469 351.645 211.645 351.47 211.689 351.206V348.934C211.711 348.165 212.029 347.561 212.644 347.122L215.937 344.883C216.42 344.553 216.881 344.586 217.321 344.982C217.562 345.223 217.694 345.508 217.716 345.838V351.206C217.716 351.492 217.847 351.656 218.111 351.7C218.155 351.7 218.199 351.711 218.243 351.733H220.285C221.317 351.733 222.096 352.172 222.623 353.051C222.843 353.468 222.963 353.918 222.985 354.401C222.985 355.411 222.535 356.179 221.635 356.706C221.218 356.948 220.768 357.069 220.285 357.069H218.243C217.935 357.134 217.76 357.31 217.716 357.596V366.751C217.716 368.903 217.979 370.286 218.506 370.901C218.814 371.274 219.242 371.538 219.791 371.692C221.13 372.065 222.074 372.91 222.623 374.228C222.843 374.777 222.963 375.347 222.985 375.94V377.587H222.129C218.243 377.587 215.553 376.862 214.06 375.413C212.567 373.986 211.777 371.384 211.689 367.608C211.689 367.322 211.689 367.048 211.689 366.784V357.596C211.623 357.31 211.447 357.134 211.162 357.069H209.943C208.933 357.069 208.165 356.629 207.638 355.751C207.396 355.312 207.275 354.862 207.275 354.401C207.275 353.369 207.715 352.6 208.593 352.095C209.032 351.854 209.482 351.733 209.943 351.733ZM226.543 347.386C226.543 346.354 226.982 345.563 227.861 345.014C228.322 344.751 228.805 344.619 229.31 344.619C230.342 344.619 231.132 345.058 231.681 345.937C231.945 346.398 232.076 346.881 232.076 347.386C232.076 348.418 231.637 349.208 230.759 349.757C230.298 350.021 229.815 350.152 229.31 350.152C228.278 350.152 227.487 349.713 226.939 348.835C226.675 348.374 226.543 347.891 226.543 347.386ZM229.178 353.61C230.232 353.61 231.022 354.061 231.549 354.961C231.813 355.422 231.945 355.894 231.945 356.377V374.82C231.945 375.874 231.495 376.665 230.594 377.192C230.155 377.455 229.683 377.587 229.178 377.587C228.146 377.587 227.356 377.137 226.807 376.237C226.565 375.798 226.445 375.325 226.445 374.82V356.377C226.445 355.323 226.895 354.533 227.795 354.006C228.234 353.764 228.695 353.632 229.178 353.61ZM255.715 364.347C255.715 361.954 254.87 360 253.179 358.485C251.796 357.233 250.171 356.597 248.305 356.575C245.999 356.575 244.122 357.464 242.673 359.242C241.487 360.691 240.894 362.393 240.894 364.347C240.894 366.675 241.718 368.596 243.364 370.111C244.77 371.384 246.416 372.032 248.305 372.054C250.369 372.054 252.114 371.296 253.541 369.781C254.99 368.266 255.715 366.455 255.715 364.347ZM235.098 364.347C235.098 360.79 236.284 357.738 238.655 355.191C240.96 352.71 243.826 351.338 247.251 351.074C247.602 351.052 247.953 351.042 248.305 351.042C251.796 351.042 254.793 352.216 257.296 354.566C259.777 356.893 261.16 359.769 261.446 363.194C261.49 363.59 261.512 363.974 261.512 364.347C261.512 367.816 260.337 370.813 257.988 373.338C255.704 375.819 252.883 377.214 249.523 377.521C249.106 377.565 248.7 377.587 248.305 377.587C244.814 377.587 241.806 376.412 239.281 374.063C236.843 371.758 235.471 368.925 235.164 365.566C235.12 365.149 235.098 364.742 235.098 364.347ZM268.902 351.404H269.495C270.087 351.404 270.483 351.678 270.68 352.227C270.724 352.359 270.746 352.491 270.746 352.622V353.775C270.746 353.995 270.856 354.093 271.076 354.072C271.163 354.05 271.229 354.017 271.273 353.973C273.183 351.909 275.621 350.866 278.585 350.844C282.822 350.844 285.797 352.414 287.51 355.554C288.476 357.332 288.959 359.495 288.959 362.042V374.557C288.959 375.677 288.487 376.533 287.543 377.126C287.038 377.411 286.511 377.565 285.962 377.587H285.863C284.743 377.587 283.887 377.104 283.294 376.138C282.987 375.633 282.833 375.106 282.833 374.557V362.667C282.833 359.374 281.648 357.31 279.276 356.476C278.574 356.212 277.794 356.081 276.938 356.081C274.72 356.081 273.052 356.981 271.932 358.781C271.185 359.989 270.801 361.46 270.779 363.194V374.557C270.779 375.677 270.307 376.533 269.363 377.126C268.858 377.411 268.331 377.565 267.782 377.587C266.662 377.587 265.806 377.104 265.213 376.138C264.906 375.633 264.752 375.106 264.752 374.557V355.554C264.752 354.104 265.345 352.974 266.531 352.161C267.255 351.656 268.046 351.404 268.902 351.404ZM294.256 369.979L294.849 369.716C295.815 369.254 296.726 369.331 297.582 369.946C297.736 370.078 297.879 370.21 298.01 370.341C299.306 371.747 300.996 372.449 303.082 372.449C304.026 372.449 304.828 372.306 305.486 372.021C306.167 371.736 306.661 371.362 306.969 370.901C307.298 370.44 307.463 369.924 307.463 369.353C307.463 368.453 306.716 367.761 305.223 367.278C304.872 367.169 303.62 366.872 301.468 366.389C298.197 365.708 295.913 364.808 294.618 363.688C293.191 362.437 292.477 360.768 292.477 358.682C292.477 356.531 293.41 354.708 295.277 353.215C297.209 351.656 299.635 350.866 302.555 350.844C305.783 350.866 308.396 351.634 310.394 353.149C311.25 353.83 311.59 354.697 311.415 355.751C311.239 356.629 310.767 357.277 309.999 357.694L309.801 357.793C308.857 358.254 307.946 358.155 307.067 357.497C307.001 357.431 306.936 357.376 306.87 357.332C305.706 356.3 304.268 355.773 302.555 355.751C300.535 355.751 299.24 356.344 298.669 357.53C298.515 357.837 298.438 358.166 298.438 358.518C298.438 359.352 299.042 360 300.25 360.461C300.93 360.702 302.281 361.043 304.301 361.482C307.858 362.206 310.317 363.282 311.678 364.709C312.776 365.917 313.325 367.421 313.325 369.222C313.325 371.176 312.567 372.932 311.052 374.491C309.054 376.533 306.31 377.565 302.819 377.587C298.801 377.565 295.694 376.467 293.498 374.293C292.752 373.525 292.543 372.614 292.872 371.56C293.136 370.857 293.597 370.33 294.256 369.979ZM332.593 370.341L325.545 354.006C325.15 353.105 325.282 352.282 325.941 351.536C326.424 351.031 327.005 350.767 327.686 350.745H327.884C328.806 350.745 329.486 351.151 329.926 351.964C329.97 352.052 330.013 352.128 330.057 352.194L334.866 363.853C335.02 364.204 335.272 364.325 335.623 364.215C335.799 364.128 335.931 364.007 336.019 363.853L340.564 352.227C340.893 351.393 341.497 350.91 342.375 350.778C342.507 350.756 342.627 350.745 342.737 350.745H342.902C343.846 350.745 344.538 351.162 344.977 351.997C345.284 352.655 345.317 353.314 345.076 353.973L333.417 383.943C332.868 384.8 332.143 385.283 331.243 385.393C330.299 385.393 329.607 384.975 329.168 384.141C328.861 383.482 328.828 382.835 329.069 382.198L332.626 372.153C332.846 371.538 332.835 370.934 332.593 370.341ZM354.49 361.185H367.335C367.708 361.185 367.927 361.01 367.993 360.658C367.993 360.549 367.982 360.439 367.96 360.329C366.994 357.716 365.04 356.256 362.098 355.949C361.725 355.905 361.352 355.883 360.978 355.883C358.409 355.883 356.367 356.838 354.852 358.748C354.479 359.231 354.161 359.747 353.897 360.296C353.722 360.647 353.809 360.922 354.161 361.12C354.271 361.163 354.38 361.185 354.49 361.185ZM347.508 363.82C347.596 360.241 348.869 357.189 351.328 354.664C353.722 352.205 356.653 350.866 360.122 350.646C360.605 350.624 361.088 350.613 361.571 350.613C365.304 350.767 368.367 352.117 370.76 354.664C373.109 357.189 374.284 360.285 374.284 363.952V364.215C374.284 365.05 373.911 365.643 373.164 365.994C372.879 366.126 372.593 366.192 372.308 366.192H354.062C353.711 366.192 353.502 366.367 353.436 366.718C353.414 366.85 353.425 366.96 353.469 367.048C354.26 369.419 355.797 371.011 358.08 371.823C359.046 372.153 360.078 372.317 361.176 372.317C363.701 372.295 365.71 371.406 367.203 369.65C367.862 368.837 368.729 368.541 369.805 368.76C370.134 368.826 370.42 368.936 370.661 369.09C371.605 369.617 372.066 370.418 372.044 371.494C372.022 372.219 371.792 372.844 371.353 373.371C368.784 376.16 365.392 377.565 361.176 377.587C358.475 377.587 356.06 376.972 353.93 375.743C351.822 374.513 350.209 372.855 349.089 370.769C347.969 368.662 347.442 366.345 347.508 363.82ZM380.085 351.733H381.303C381.611 351.645 381.786 351.47 381.83 351.206V348.934C381.852 348.165 382.171 347.561 382.785 347.122L386.079 344.883C386.562 344.553 387.023 344.586 387.462 344.982C387.704 345.223 387.835 345.508 387.857 345.838V351.206C387.857 351.492 387.989 351.656 388.253 351.7C388.297 351.7 388.34 351.711 388.384 351.733H390.426C391.458 351.733 392.238 352.172 392.765 353.051C392.984 353.468 393.105 353.918 393.127 354.401C393.127 355.411 392.677 356.179 391.777 356.706C391.359 356.948 390.909 357.069 390.426 357.069H388.384C388.077 357.134 387.901 357.31 387.857 357.596V366.751C387.857 368.903 388.121 370.286 388.648 370.901C388.955 371.274 389.383 371.538 389.932 371.692C391.272 372.065 392.216 372.91 392.765 374.228C392.984 374.777 393.105 375.347 393.127 375.94V377.587H392.271C388.384 377.587 385.695 376.862 384.202 375.413C382.709 373.986 381.918 371.384 381.83 367.608C381.83 367.322 381.83 367.048 381.83 366.784V357.596C381.764 357.31 381.589 357.134 381.303 357.069H380.085C379.075 357.069 378.306 356.629 377.779 355.751C377.538 355.312 377.417 354.862 377.417 354.401C377.417 353.369 377.856 352.6 378.734 352.095C379.174 351.854 379.624 351.733 380.085 351.733Z" fill="white"/>
</g>
<defs>
<filter id="filter0_i_486_901" x="13.707" y="0.810547" width="426.846" height="338.863" filterUnits="userSpaceOnUse" color-interpolation-filters="sRGB">
<feFlood flood-opacity="0" result="BackgroundImageFix"/>
<feBlend mode="normal" in="SourceGraphic" in2="BackgroundImageFix" result="shape"/>
<feColorMatrix in="SourceAlpha" type="matrix" values="0 0 0 0 0 0 0 0 0 0 0 0 0 0 0 0 0 0 127 0" result="hardAlpha"/>
<feOffset dx="39.448"/>
<feGaussianBlur stdDeviation="28.655"/>
<feComposite in2="hardAlpha" operator="arithmetic" k2="-1" k3="1"/>
<feColorMatrix type="matrix" values="0 0 0 0 1 0 0 0 0 1 0 0 0 0 1 0 0 0 0.5 0"/>
<feBlend mode="normal" in2="shape" result="effect1_innerShadow_486_901"/>
</filter>
<linearGradient id="paint0_linear_486_901" x1="441.862" y1="67.4263" x2="94.3955" y2="319.133" gradientUnits="userSpaceOnUse">
<stop stop-color="#00FFD1"/>
<stop offset="1" stop-color="#C97200"/>
</linearGradient>
<linearGradient id="paint1_linear_486_901" x1="441.862" y1="67.4263" x2="94.3955" y2="319.133" gradientUnits="userSpaceOnUse">
<stop stop-color="#00FFD1"/>
<stop offset="1" stop-color="#C97200"/>
</linearGradient>
<linearGradient id="paint2_linear_486_901" x1="441.862" y1="67.4263" x2="94.3955" y2="319.133" gradientUnits="userSpaceOnUse">
<stop stop-color="#00FFD1"/>
<stop offset="1" stop-color="#C97200"/>
</linearGradient>
<clipPath id="clip0_486_901">
<rect width="414.168" height="441.594" fill="white"/>
</clipPath>
</defs>
</svg>
