<svg width="590" height="593" viewBox="0 0 590 593" fill="none" xmlns="http://www.w3.org/2000/svg">
<g filter="url(#filter0_d_675_913)">
<path d="M203.517 142.115L233.742 205.07L235.269 204.663L245.504 167.835L256.956 126.626L203.517 142.115Z" fill="url(#paint0_linear_675_913)"/>
<path d="M292.617 165.459L310.396 111.136L256.956 126.626L245.504 167.835L292.617 165.459Z" fill="url(#paint1_linear_675_913)"/>
<path d="M245.504 167.835L235.269 204.663L284.036 191.676L292.617 165.459L245.504 167.835Z" fill="url(#paint2_linear_675_913)"/>
<path d="M88.1279 337.692L270.558 232.858L284.036 191.676L235.269 204.663L233.742 205.07L220.768 213.351L83.9153 300.701L88.1279 337.692Z" fill="url(#paint3_linear_675_913)"/>
<path d="M319.554 264.655L270.558 232.858L88.1279 337.692L332.238 477.292L325.896 370.974L319.554 264.655Z" fill="url(#paint4_linear_675_913)"/>
<path d="M270.558 232.858L319.554 264.655L314.713 183.507L284.036 191.676L270.558 232.858Z" fill="url(#paint5_linear_675_913)"/>
<path d="M319.554 264.655L341.688 176.324L314.713 183.507L319.554 264.655Z" fill="url(#paint6_linear_675_913)"/>
<path d="M319.554 264.655L373.034 299.363L403.09 253.705L351.953 173.59L341.688 176.324L319.554 264.655Z" fill="url(#paint7_linear_675_913)"/>
<path d="M505.998 363.803L474.1 364.954L373.034 299.363L325.896 370.974L332.238 477.292L332.065 490.633L331.858 506.643L394.21 485.795L505.998 363.803Z" fill="url(#paint8_linear_675_913)"/>
<path d="M319.554 264.655L325.896 370.974L373.034 299.363L319.554 264.655Z" fill="url(#paint9_linear_675_913)"/>
<path d="M403.09 253.705L373.034 299.363L474.1 364.954L403.09 253.705Z" fill="url(#paint10_linear_675_913)"/>
<path d="M474.1 364.954L438.583 199.784L403.09 253.705L474.1 364.954Z" fill="url(#paint11_linear_675_913)"/>
<path d="M438.583 199.784L403.488 159.867L351.953 173.59L403.09 253.705L438.583 199.784Z" fill="url(#paint12_linear_675_913)"/>
<path d="M403.488 159.867L345.074 162.813L351.953 173.59L403.488 159.867Z" fill="url(#paint13_linear_675_913)"/>
<path d="M403.488 159.867L353.243 133.565L345.074 162.813L403.488 159.867Z" fill="url(#paint14_linear_675_913)"/>
<path d="M403.488 159.867L417.275 80.1576L363.835 95.6469L353.243 133.565L403.488 159.867Z" fill="url(#paint15_linear_675_913)"/>
<path d="M363.835 95.6469L310.396 111.136L353.243 133.565L363.835 95.6469Z" fill="url(#paint16_linear_675_913)"/>
<path d="M345.074 162.813L327.735 136.975L310.396 111.136L313.573 164.402L345.074 162.813Z" fill="url(#paint17_linear_675_913)"/>
<path d="M310.396 111.136L327.735 136.975L345.074 162.813L353.243 133.565L310.396 111.136Z" fill="url(#paint18_linear_675_913)"/>
<path d="M310.396 111.136L292.617 165.459L313.573 164.402L310.396 111.136Z" fill="url(#paint19_linear_675_913)"/>
<path d="M292.617 165.459L284.036 191.676L314.713 183.507L313.573 164.402L292.617 165.459Z" fill="url(#paint20_linear_675_913)"/>
<path d="M314.713 183.507L341.688 176.324L345.074 162.813L313.573 164.402L314.713 183.507Z" fill="url(#paint21_linear_675_913)"/>
<path d="M345.074 162.813L341.688 176.324L351.953 173.59L345.074 162.813Z" fill="url(#paint22_linear_675_913)"/>
<path d="M88.1279 337.692L83.9153 300.701L82.2324 303.082L87.0071 340.414L332.065 490.633L332.238 477.292L88.1279 337.692Z" fill="url(#paint23_linear_675_913)"/>
<path d="M233.742 205.07L203.517 142.115L193.084 155.772L220.768 213.351L233.742 205.07Z" fill="url(#paint24_linear_675_913)"/>
<path d="M203.517 142.115L233.742 205.07M203.517 142.115L256.956 126.626M203.517 142.115L193.084 155.772L220.768 213.351M403.488 159.867L417.275 80.1576L363.835 95.6469M403.488 159.867L438.583 199.784M403.488 159.867L351.953 173.59M403.488 159.867L345.074 162.813M403.488 159.867L353.243 133.565M403.488 159.867L313.573 164.402M438.583 199.784L474.1 364.954M438.583 199.784L403.09 253.705M474.1 364.954L505.998 363.803L394.21 485.795L331.858 506.643L332.065 490.633M474.1 364.954L403.09 253.705M474.1 364.954L373.034 299.363M332.238 477.292L325.896 370.974M332.238 477.292L88.1279 337.692M332.238 477.292L332.065 490.633M88.1279 337.692L83.9153 300.701M88.1279 337.692L270.558 232.858M83.9153 300.701L220.768 213.351M83.9153 300.701L82.2324 303.082L87.0071 340.414L332.065 490.633M233.742 205.07L235.269 204.663M233.742 205.07L220.768 213.351M310.396 111.136L256.956 126.626M310.396 111.136L363.835 95.6469M310.396 111.136L292.617 165.459M310.396 111.136L353.243 133.565M310.396 111.136L313.573 164.402M310.396 111.136L327.735 136.975L345.074 162.813M270.558 232.858L319.554 264.655M270.558 232.858L284.036 191.676M256.956 126.626L245.504 167.835M234.051 209.044L235.269 204.663M245.504 167.835L235.269 204.663M245.504 167.835L292.617 165.459M363.835 95.6469L353.243 133.565M319.554 264.655L325.896 370.974M319.554 264.655L314.713 183.507M319.554 264.655L341.688 176.324M319.554 264.655L373.034 299.363M325.896 370.974L373.034 299.363M345.074 162.813L341.688 176.324M345.074 162.813L351.953 173.59M345.074 162.813L353.243 133.565M345.074 162.813L313.573 164.402M235.269 204.663L284.036 191.676M292.617 165.459L284.036 191.676M292.617 165.459L313.573 164.402M284.036 191.676L314.713 183.507M314.713 183.507L341.688 176.324M314.713 183.507L313.573 164.402M341.688 176.324L351.953 173.59M373.034 299.363L403.09 253.705M403.09 253.705L351.953 173.59" stroke="#3BFFEF" stroke-width="2.42192"/>
</g>
<defs>
<filter id="filter0_d_675_913" x="0.242058" y="0.953704" width="589.332" height="591.338" filterUnits="userSpaceOnUse" color-interpolation-filters="sRGB">
<feFlood flood-opacity="0" result="BackgroundImageFix"/>
<feColorMatrix in="SourceAlpha" type="matrix" values="0 0 0 0 0 0 0 0 0 0 0 0 0 0 0 0 0 0 127 0" result="hardAlpha"/>
<feOffset dy="3.22922"/>
<feGaussianBlur stdDeviation="40.3653"/>
<feComposite in2="hardAlpha" operator="out"/>
<feColorMatrix type="matrix" values="0 0 0 0 1 0 0 0 0 1 0 0 0 0 1 0 0 0 0.25 0"/>
<feBlend mode="normal" in2="BackgroundImageFix" result="effect1_dropShadow_675_913"/>
<feBlend mode="normal" in="SourceGraphic" in2="effect1_dropShadow_675_913" result="shape"/>
</filter>
<linearGradient id="paint0_linear_675_913" x1="273.9" y1="133.97" x2="283.014" y2="199.903" gradientUnits="userSpaceOnUse">
<stop stop-color="#24DB83"/>
<stop offset="1" stop-color="#0075C9"/>
</linearGradient>
<linearGradient id="paint1_linear_675_913" x1="275.257" y1="91.2142" x2="281.508" y2="180.026" gradientUnits="userSpaceOnUse">
<stop stop-color="#0075C9"/>
<stop offset="1" stop-color="#24DB83"/>
</linearGradient>
<linearGradient id="paint2_linear_675_913" x1="273.9" y1="133.97" x2="283.014" y2="199.903" gradientUnits="userSpaceOnUse">
<stop stop-color="#24DB83"/>
<stop offset="1" stop-color="#0075C9"/>
</linearGradient>
<linearGradient id="paint3_linear_675_913" x1="276.757" y1="119.086" x2="386.958" y2="340.041" gradientUnits="userSpaceOnUse">
<stop stop-color="#24DB83"/>
<stop offset="1" stop-color="#0075C9"/>
</linearGradient>
<linearGradient id="paint4_linear_675_913" x1="278.098" y1="136.309" x2="307.74" y2="508.521" gradientUnits="userSpaceOnUse">
<stop stop-color="#0075C9"/>
<stop offset="1" stop-color="#24DB83"/>
</linearGradient>
<linearGradient id="paint5_linear_675_913" x1="278.926" y1="134.911" x2="299.268" y2="310.592" gradientUnits="userSpaceOnUse">
<stop stop-color="#0075C9"/>
<stop offset="1" stop-color="#24DB83"/>
</linearGradient>
<linearGradient id="paint6_linear_675_913" x1="278.098" y1="136.309" x2="307.74" y2="508.521" gradientUnits="userSpaceOnUse">
<stop stop-color="#0075C9"/>
<stop offset="1" stop-color="#24DB83"/>
</linearGradient>
<linearGradient id="paint7_linear_675_913" x1="276.551" y1="116.437" x2="394.192" y2="382.11" gradientUnits="userSpaceOnUse">
<stop stop-color="#24DB83"/>
<stop offset="1" stop-color="#0075C9"/>
</linearGradient>
<linearGradient id="paint8_linear_675_913" x1="383.006" y1="280.082" x2="308.471" y2="508.757" gradientUnits="userSpaceOnUse">
<stop stop-color="#0075C9"/>
<stop offset="1" stop-color="#24DB83"/>
</linearGradient>
<linearGradient id="paint9_linear_675_913" x1="262.14" y1="154.878" x2="328.019" y2="404.389" gradientUnits="userSpaceOnUse">
<stop stop-color="#0075C9"/>
<stop offset="1" stop-color="#24DB83"/>
</linearGradient>
<linearGradient id="paint10_linear_675_913" x1="278.098" y1="136.309" x2="307.74" y2="508.521" gradientUnits="userSpaceOnUse">
<stop stop-color="#0075C9"/>
<stop offset="1" stop-color="#24DB83"/>
</linearGradient>
<linearGradient id="paint11_linear_675_913" x1="276.551" y1="116.437" x2="394.192" y2="382.11" gradientUnits="userSpaceOnUse">
<stop stop-color="#24DB83"/>
<stop offset="1" stop-color="#0075C9"/>
</linearGradient>
<linearGradient id="paint12_linear_675_913" x1="276.757" y1="119.086" x2="386.958" y2="340.041" gradientUnits="userSpaceOnUse">
<stop stop-color="#24DB83"/>
<stop offset="1" stop-color="#0075C9"/>
</linearGradient>
<linearGradient id="paint13_linear_675_913" x1="262.14" y1="154.878" x2="328.019" y2="404.389" gradientUnits="userSpaceOnUse">
<stop stop-color="#0075C9"/>
<stop offset="1" stop-color="#24DB83"/>
</linearGradient>
<linearGradient id="paint14_linear_675_913" x1="275.257" y1="91.2142" x2="281.508" y2="180.026" gradientUnits="userSpaceOnUse">
<stop stop-color="#0075C9"/>
<stop offset="1" stop-color="#24DB83"/>
</linearGradient>
<linearGradient id="paint15_linear_675_913" x1="276.551" y1="116.437" x2="394.192" y2="382.11" gradientUnits="userSpaceOnUse">
<stop stop-color="#24DB83"/>
<stop offset="1" stop-color="#0075C9"/>
</linearGradient>
<linearGradient id="paint16_linear_675_913" x1="275.257" y1="91.2142" x2="281.508" y2="180.026" gradientUnits="userSpaceOnUse">
<stop stop-color="#0075C9"/>
<stop offset="1" stop-color="#24DB83"/>
</linearGradient>
<linearGradient id="paint17_linear_675_913" x1="275.257" y1="91.2142" x2="281.508" y2="180.026" gradientUnits="userSpaceOnUse">
<stop stop-color="#0075C9"/>
<stop offset="1" stop-color="#24DB83"/>
</linearGradient>
<linearGradient id="paint18_linear_675_913" x1="276.551" y1="116.437" x2="394.192" y2="382.11" gradientUnits="userSpaceOnUse">
<stop stop-color="#24DB83"/>
<stop offset="1" stop-color="#0075C9"/>
</linearGradient>
<linearGradient id="paint19_linear_675_913" x1="276.551" y1="116.437" x2="394.192" y2="382.11" gradientUnits="userSpaceOnUse">
<stop stop-color="#24DB83"/>
<stop offset="1" stop-color="#0075C9"/>
</linearGradient>
<linearGradient id="paint20_linear_675_913" x1="262.14" y1="154.878" x2="328.019" y2="404.389" gradientUnits="userSpaceOnUse">
<stop stop-color="#0075C9"/>
<stop offset="1" stop-color="#24DB83"/>
</linearGradient>
<linearGradient id="paint21_linear_675_913" x1="276.551" y1="116.437" x2="394.192" y2="382.11" gradientUnits="userSpaceOnUse">
<stop stop-color="#24DB83"/>
<stop offset="1" stop-color="#0075C9"/>
</linearGradient>
<linearGradient id="paint22_linear_675_913" x1="276.551" y1="116.437" x2="394.192" y2="382.11" gradientUnits="userSpaceOnUse">
<stop stop-color="#24DB83"/>
<stop offset="1" stop-color="#0075C9"/>
</linearGradient>
<linearGradient id="paint23_linear_675_913" x1="277.995" y1="134.984" x2="159.353" y2="183.185" gradientUnits="userSpaceOnUse">
<stop stop-color="#0075C9"/>
<stop offset="1" stop-color="#24DB83"/>
</linearGradient>
<linearGradient id="paint24_linear_675_913" x1="277.995" y1="134.984" x2="159.353" y2="183.185" gradientUnits="userSpaceOnUse">
<stop stop-color="#0075C9"/>
<stop offset="1" stop-color="#24DB83"/>
</linearGradient>
</defs>
</svg>
