<svg width="1440" height="2066" viewBox="0 0 1440 2066" fill="none" xmlns="http://www.w3.org/2000/svg">
<g clip-path="url(#clip0_610_903)">
<g filter="url(#filter0_f_610_903)">
<path d="M-39.3676 601.34C-106.996 402.518 15.2557 181.109 233.688 106.811C452.121 32.5129 684.019 133.46 751.647 332.283C819.275 531.106 697.023 752.514 478.591 826.812C260.158 901.11 28.2604 800.163 -39.3676 601.34Z" fill="#00C9A5" fill-opacity="0.4"/>
<path d="M658.79 661.687C579.064 427.296 723.351 166.224 981.064 78.5646C1238.78 -9.09437 1512.32 109.855 1592.05 344.245C1671.78 578.636 1527.49 839.708 1269.78 927.368C1012.06 1015.03 738.516 896.077 658.79 661.687Z" fill="#0075C9" fill-opacity="0.59"/>
<path d="M303.714 373.954C223.988 139.564 368.274 -121.509 625.987 -209.168C883.7 -296.827 1157.25 -177.878 1236.97 56.5123C1316.7 290.903 1172.41 551.976 914.701 639.635C656.988 727.294 383.44 608.344 303.714 373.954Z" fill="#AA24DB" fill-opacity="0.5"/>
</g>
</g>
<defs>
<filter id="filter0_f_610_903" x="-672.57" y="-852.57" width="2901.14" height="2423.34" filterUnits="userSpaceOnUse" color-interpolation-filters="sRGB">
<feFlood flood-opacity="0" result="BackgroundImageFix"/>
<feBlend mode="normal" in="SourceGraphic" in2="BackgroundImageFix" result="shape"/>
<feGaussianBlur stdDeviation="307.285" result="effect1_foregroundBlur_610_903"/>
</filter>
<clipPath id="clip0_610_903">
<rect width="1440" height="2066" fill="white"/>
</clipPath>
</defs>
</svg>
