<svg width="100" height="100" viewBox="0 0 970 622" fill="none" xmlns="http://www.w3.org/2000/svg">
<path d="M742.343 312.63C743.113 314.712 742.031 316.967 739.873 317.49C578.548 356.628 223.225 452.509 119.674 480.551C115.453 481.694 112.999 475.748 116.789 473.566C209.65 420.081 526.662 232.902 657.02 97.0581C658.928 95.0693 662.178 95.8474 663.134 98.4326L742.343 312.63Z" fill="url(#paint0_linear_610_907)" fill-opacity="0.5"/>
<g filter="url(#filter0_i_610_907)">
<path d="M595.87 205.089C596.778 267.604 663.396 317.326 744.666 316.145C825.936 314.965 891.082 263.33 890.174 200.815C889.884 180.855 882.896 162.199 870.87 146.087C870.87 146.087 881.416 68.5211 857.536 59.8094C833.655 51.0977 795.574 96.8616 795.574 96.8616C778.759 92.0132 760.473 89.4805 741.378 89.7578C721.756 90.0427 703.074 93.269 686.034 98.8796C686.034 98.8796 645.686 53.7454 622.069 63.1468C598.452 72.5482 613.11 150.494 613.11 150.494C601.851 166.788 595.584 185.399 595.87 205.089Z" fill="url(#paint1_linear_610_907)"/>
</g>
<defs>
<filter id="filter0_i_610_907" x="595.859" y="58.707" width="324.294" height="257.459" filterUnits="userSpaceOnUse" color-interpolation-filters="sRGB">
<feFlood flood-opacity="0" result="BackgroundImageFix"/>
<feBlend mode="normal" in="SourceGraphic" in2="BackgroundImageFix" result="shape"/>
<feColorMatrix in="SourceAlpha" type="matrix" values="0 0 0 0 0 0 0 0 0 0 0 0 0 0 0 0 0 0 127 0" result="hardAlpha"/>
<feOffset dx="29.9702"/>
<feGaussianBlur stdDeviation="21.7703"/>
<feComposite in2="hardAlpha" operator="arithmetic" k2="-1" k3="1"/>
<feColorMatrix type="matrix" values="0 0 0 0 1 0 0 0 0 1 0 0 0 0 1 0 0 0 0.5 0"/>
<feBlend mode="normal" in2="shape" result="effect1_innerShadow_610_907"/>
</filter>
<linearGradient id="paint0_linear_610_907" x1="756.227" y1="151.798" x2="368.181" y2="571.772" gradientUnits="userSpaceOnUse">
<stop stop-color="white"/>
<stop offset="1" stop-color="white" stop-opacity="0"/>
</linearGradient>
<linearGradient id="paint1_linear_610_907" x1="790.502" y1="292.459" x2="609.69" y2="352.208" gradientUnits="userSpaceOnUse">
<stop stop-color="#01C8CE"/>
<stop offset="1" stop-color="#0075C9"/>
</linearGradient>
</defs>
</svg>
