<svg width="1782" height="1161" viewBox="0 0 1782 1161" fill="none" xmlns="http://www.w3.org/2000/svg">
<g clip-path="url(#clip0_665_1036)">
<g filter="url(#filter0_f_665_1036)">
<path d="M-153.81 1408.71C-239.437 1154.43 -82.382 872.028 196.983 777.955C476.348 683.882 772.233 813.76 857.86 1068.04C943.487 1322.33 786.432 1604.73 507.067 1698.8C227.702 1792.87 -68.1826 1663 -153.81 1408.71Z" fill="#00C9A5" fill-opacity="0.4"/>
<path d="M737.939 1488.54C636.994 1188.76 822.357 855.773 1151.96 744.783C1481.56 633.793 1830.59 786.834 1931.54 1086.61C2032.48 1386.38 1847.12 1719.37 1517.51 1830.36C1187.91 1941.35 838.884 1788.31 737.939 1488.54Z" fill="#0075C9" fill-opacity="0.59"/>
<path d="M291.214 1439.28C190.269 1139.51 375.632 806.516 705.235 695.526C1034.84 584.536 1383.86 737.576 1484.81 1037.35C1585.76 1337.12 1400.39 1670.12 1070.79 1781.1C741.188 1892.09 392.16 1739.05 291.214 1439.28Z" fill="#AA24DB" fill-opacity="0.5"/>
</g>
</g>
<defs>
<filter id="filter0_f_665_1036" x="-962.374" y="-125.835" width="3706.63" height="2777.56" filterUnits="userSpaceOnUse" color-interpolation-filters="sRGB">
<feFlood flood-opacity="0" result="BackgroundImageFix"/>
<feBlend mode="normal" in="SourceGraphic" in2="BackgroundImageFix" result="shape"/>
<feGaussianBlur stdDeviation="392.597" result="effect1_foregroundBlur_665_1036"/>
</filter>
<clipPath id="clip0_665_1036">
<rect width="1782" height="1161" fill="white"/>
</clipPath>
</defs>
</svg>
