<svg width="34" height="30" viewBox="0 0 34 30" fill="none" xmlns="http://www.w3.org/2000/svg">
<path d="M0.23631 16.7592C0.339813 23.8868 7.93519 29.5557 17.2011 29.4212C26.4669 29.2866 33.8945 23.3995 33.791 16.2719C33.7584 14.0265 32.9822 11.9258 31.6445 10.1057C31.6879 9.75933 32.7355 1.16838 30.0678 0.19518C27.4075 -0.775341 23.3522 4.23757 23.1679 4.46749C21.2063 3.88369 19.065 3.5774 16.8262 3.60991C14.589 3.6424 12.459 4.01024 10.5162 4.64992C10.5162 4.64992 5.91602 -0.495993 3.22335 0.575895C0.530684 1.64778 2.20187 10.5346 2.20187 10.5346C0.918185 12.3924 0.203711 14.5143 0.23631 16.7592Z" fill="white"/>
</svg>
