<svg width="479" height="87" viewBox="0 0 479 87" fill="none" xmlns="http://www.w3.org/2000/svg">
<path d="M16.6889 85.1473V69.5162H34.0829C37.3737 69.5162 39.9593 68.6152 41.8397 66.8131C43.7985 64.9327 44.7779 62.5038 44.7779 59.5264C44.7779 57.5676 44.347 55.8439 43.4851 54.3552C42.6232 52.7882 41.3696 51.6129 39.7242 50.8294C38.1572 49.9675 36.2768 49.5366 34.0829 49.5366H16.6889V34.3755H35.2582C38.0005 34.3755 40.2335 33.7096 41.9573 32.3776C43.7593 30.9673 44.6604 28.8126 44.6604 25.9136C44.6604 23.0146 43.7593 20.8991 41.9573 19.5671C40.2335 18.1568 38.0005 17.4516 35.2582 17.4516H16.6889V1.82048H40.3119C45.4831 1.82048 49.9491 2.79988 53.71 4.75867C57.5492 6.71745 60.4874 9.34223 62.5245 12.633C64.5617 15.9238 65.5802 19.6455 65.5802 23.7981C65.5802 29.361 63.6606 33.9838 59.8214 37.6663C56.0605 41.2705 48.1078 43.5035 40.8995 44.3654L43.3676 37.3137C51.3594 38.254 55.0028 40.8395 59.2338 45.0705C63.4648 49.2232 65.5802 54.4727 65.5802 60.8192C65.5802 65.5203 64.405 69.7121 62.0544 73.3946C59.7039 76.9988 56.3739 79.8586 52.0646 81.9741C47.8336 84.0896 42.8191 85.1473 37.0211 85.1473H16.6889ZM0 85.1473V1.82048H20.6848V85.1473H0Z" fill="white"/>
<path d="M70.3272 85.1473L102.647 1.82048H122.979L154.947 85.1473H132.969L108.876 15.1011H116.515L91.8347 85.1473H70.3272ZM89.9543 70.574V53.8851H135.907V70.574H89.9543Z" fill="white"/>
<path d="M198.931 86.4401C192.584 86.4401 186.708 85.3824 181.301 83.2669C175.895 81.0731 171.155 78.0565 167.081 74.2173C163.085 70.2997 159.951 65.7162 157.678 60.4666C155.485 55.2171 154.388 49.5366 154.388 43.4252C154.388 37.2354 155.485 31.5549 157.678 26.3837C159.951 21.1341 163.085 16.5897 167.081 12.7505C171.155 8.9113 175.856 5.89476 181.184 3.70092C186.59 1.50708 192.427 0.410156 198.696 0.410156C205.277 0.410156 211.193 1.4679 216.442 3.58339C221.692 5.62053 226.314 8.48036 230.31 12.1629L216.207 26.2662C214.248 24.0723 211.819 22.3486 208.92 21.095C206.021 19.8413 202.613 19.2145 198.696 19.2145C195.326 19.2145 192.232 19.763 189.411 20.8599C186.669 21.9568 184.279 23.6022 182.242 25.7961C180.205 27.9115 178.598 30.458 177.423 33.4353C176.326 36.4127 175.778 39.7426 175.778 43.4252C175.778 47.1077 176.326 50.4376 177.423 53.415C178.598 56.3923 180.205 58.9779 182.242 61.1718C184.279 63.2873 186.669 64.9327 189.411 66.1079C192.232 67.2048 195.326 67.7533 198.696 67.7533C202.613 67.7533 206.061 67.1657 209.038 65.9904C212.015 64.7368 214.562 62.9739 216.677 60.7017L230.78 74.8049C226.706 78.4875 222.083 81.3473 216.912 83.3844C211.819 85.4216 205.826 86.4401 198.931 86.4401Z" fill="white"/>
<path d="M263.145 85.1473L237.054 4.28856H245.634L267.612 73.8647H265.026L286.768 4.28856H293.232L315.093 73.8647H312.389L334.367 4.28856H343.064L316.855 85.1473H310.509L288.766 15.6887H291.234L269.492 85.1473H263.145Z" fill="white"/>
<path d="M341.722 85.1473L374.864 4.28856H381.328L414.118 85.1473H404.834L376.275 13.6907H379.683L350.889 85.1473H341.722ZM356.883 64.11V56.4707H399.193V64.11H356.883Z" fill="white"/>
<path d="M441.861 51.7696L409.776 4.28856H419.884L446.562 44.1303H442.331L469.245 4.28856H479L446.68 51.7696H441.861ZM440.098 85.1473V45.5406H448.795V85.1473H440.098Z" fill="white"/>
</svg>
