<svg width="65" height="65" viewBox="0 0 65 65" fill="none" xmlns="http://www.w3.org/2000/svg">
<path d="M45.7356 5.37988H18.8285C11.3984 5.37988 5.375 11.4032 5.375 18.8334V45.7405C5.375 53.1707 11.3984 59.194 18.8285 59.194H45.7356C53.1658 59.194 59.1891 53.1707 59.1891 45.7405V18.8334C59.1891 11.4032 53.1658 5.37988 45.7356 5.37988Z" stroke="white" stroke-width="4.03606" stroke-linecap="round" stroke-linejoin="round"/>
<path d="M43.0499 30.5943C43.3819 32.8336 42.9994 35.1206 41.9568 37.13C40.9142 39.1394 39.2644 40.7689 37.2423 41.7867C35.2202 42.8045 32.9286 43.1588 30.6936 42.7991C28.4585 42.4395 26.3938 41.3842 24.793 39.7835C23.1922 38.1827 22.137 36.1179 21.7773 33.8829C21.4177 31.6478 21.7719 29.3563 22.7897 27.3341C23.8075 25.312 25.437 23.6623 27.4464 22.6197C29.4558 21.577 31.7429 21.1945 33.9822 21.5266C36.2664 21.8653 38.3811 22.9297 40.0139 24.5625C41.6468 26.1954 42.7112 28.3101 43.0499 30.5943Z" stroke="white" stroke-width="4.03606" stroke-linecap="round" stroke-linejoin="round"/>
<path d="M47.0879 17.4902H47.1168" stroke="white" stroke-width="4.03606" stroke-linecap="round" stroke-linejoin="round"/>
</svg>
