<svg width="63" height="63" viewBox="0 0 63 63" fill="none" xmlns="http://www.w3.org/2000/svg">
<path d="M41.7081 20.8555C45.856 20.8555 49.834 22.5032 52.7671 25.4362C55.7001 28.3693 57.3478 32.3473 57.3478 36.4952V54.7416H46.9213V36.4952C46.9213 35.1126 46.3721 33.7866 45.3944 32.8089C44.4167 31.8312 43.0907 31.282 41.7081 31.282C40.3255 31.282 38.9994 31.8312 38.0218 32.8089C37.0441 33.7866 36.4948 35.1126 36.4948 36.4952V54.7416H26.0684V36.4952C26.0684 32.3473 27.7161 28.3693 30.6491 25.4362C33.5821 22.5032 37.5602 20.8555 41.7081 20.8555Z" stroke="white" stroke-width="5.21324" stroke-linecap="round" stroke-linejoin="round"/>
<path d="M15.6394 23.4619H5.21289V54.7414H15.6394V23.4619Z" stroke="white" stroke-width="5.21324" stroke-linecap="round" stroke-linejoin="round"/>
<path d="M10.4261 15.6423C13.3053 15.6423 15.6394 13.3083 15.6394 10.4291C15.6394 7.54987 13.3053 5.21582 10.4261 5.21582C7.54694 5.21582 5.21289 7.54987 5.21289 10.4291C5.21289 13.3083 7.54694 15.6423 10.4261 15.6423Z" stroke="white" stroke-width="5.21324" stroke-linecap="round" stroke-linejoin="round"/>
</svg>
