<svg width="225" height="225" viewBox="0 0 225 225" fill="none" xmlns="http://www.w3.org/2000/svg">
<path d="M222.559 119.897C224.636 114.883 224.636 109.249 222.559 104.234L209.153 71.8686L112.109 112.066L209.153 152.263L222.559 119.897Z" fill="#01B6CC"/>
<path d="M184.671 195.704C189.686 193.627 193.67 189.643 195.747 184.628L209.153 152.263L112.109 112.066L152.306 209.11L184.671 195.704Z" fill="#01A2CC"/>
<path d="M104.277 222.516C109.292 224.593 114.926 224.593 119.94 222.516L152.306 209.11L112.109 112.066L71.9116 209.11L104.277 222.516Z" fill="#0097CB"/>
<path d="M15.0643 152.263L28.4705 184.628C30.5476 189.643 34.5316 193.627 39.5461 195.704L71.9116 209.11L112.109 112.066L15.0643 152.263Z" fill="#018ECA"/>
<path d="M1.65803 104.234C-0.419048 109.249 -0.419047 114.883 1.65803 119.897L15.0643 152.263L112.109 112.066L15.0643 71.8686L1.65803 104.234Z" fill="#2E9BD4"/>
<path d="M39.5461 28.4275C34.5316 30.5046 30.5476 34.4886 28.4705 39.5031L15.0643 71.8686L112.109 112.066L71.9116 15.0213L39.5461 28.4275Z" fill="#4EE2F9"/>
<path d="M119.94 1.61506C114.926 -0.462016 109.292 -0.462016 104.277 1.61506L71.9116 15.0213L112.109 112.066L152.306 15.0213L119.94 1.61506Z" fill="#01E0CF"/>
<path d="M209.153 71.8686L195.747 39.5031C193.67 34.4886 189.686 30.5046 184.671 28.4275L152.306 15.0213L112.109 112.066L209.153 71.8686Z" fill="#01C8CE"/>
</svg>
