<svg width="36" height="14" viewBox="0 0 36 14" fill="none" xmlns="http://www.w3.org/2000/svg">
<path d="M28.8906 0C32.7318 0 35.8456 3.11388 35.8457 6.95508C35.8457 10.7963 32.7319 13.9102 28.8906 13.9102H6.95508C3.11383 13.9102 0 10.7963 0 6.95508C6.8036e-05 3.11388 3.11387 0 6.95508 0H28.8906ZM19.1943 9.10059C18.948 9.10069 18.7424 9.18682 18.5781 9.35742C18.4139 9.52176 18.332 9.73065 18.332 9.9834C18.3321 10.2235 18.4138 10.429 18.5781 10.5996C18.7424 10.7702 18.948 10.8554 19.1943 10.8555C19.4472 10.8555 19.6535 10.7703 19.8115 10.5996C19.9758 10.429 20.0575 10.2234 20.0576 9.9834C20.0576 9.73068 19.9757 9.52175 19.8115 9.35742C19.6535 9.18672 19.4472 9.10059 19.1943 9.10059ZM9.10449 6.14258L11.0576 10.751H12.2236L14.1777 6.14258H12.6416L11.6543 8.99512L10.6689 6.14258H9.10449ZM14.3779 4.05566V5.31738H15.668V10.751H17.1475V4.05566H14.3779ZM22.9385 3.95117C22.4708 3.95124 22.0506 4.05608 21.6777 4.26465C21.3047 4.47328 21.0074 4.75437 20.7861 5.1084C20.5649 5.46245 20.4541 5.86115 20.4541 6.30371C20.4541 6.72714 20.5521 7.10643 20.748 7.44141C20.9504 7.77017 21.2196 8.03252 21.5547 8.22852C21.896 8.4181 22.2693 8.5127 22.6738 8.5127C22.7407 8.51269 22.8038 8.51006 22.8633 8.50586L21.251 10.751H22.9385L24.8262 8.00098C25.2182 7.42565 25.4141 6.85319 25.4141 6.28418C25.414 5.84172 25.3033 5.44629 25.082 5.09863C24.8671 4.74476 24.5731 4.46689 24.2002 4.26465C23.8272 4.05601 23.4063 3.95117 22.9385 3.95117ZM22.9385 5.25098C23.1343 5.25098 23.3118 5.2979 23.4697 5.39258C23.6278 5.48109 23.7513 5.60808 23.8398 5.77246C23.9283 5.93682 23.9727 6.12343 23.9727 6.33203C23.9726 6.53426 23.9283 6.71751 23.8398 6.88184C23.7513 7.03989 23.6278 7.16591 23.4697 7.26074C23.3117 7.35558 23.1345 7.40332 22.9385 7.40332C22.7427 7.40324 22.5661 7.35549 22.4082 7.26074C22.2501 7.16591 22.1232 7.03989 22.0283 6.88184C21.9399 6.71754 21.8955 6.53422 21.8955 6.33203C21.8955 6.12348 21.9399 5.93679 22.0283 5.77246C22.1232 5.60808 22.2467 5.48109 22.3984 5.39258C22.5563 5.2979 22.7364 5.25105 22.9385 5.25098Z" fill="white"/>
</svg>
