<svg width="36" height="14" viewBox="0 0 36 14" fill="none" xmlns="http://www.w3.org/2000/svg">
<path d="M28.8906 0C32.7318 0 35.8456 3.11388 35.8457 6.95508C35.8457 10.7963 32.7319 13.9102 28.8906 13.9102H6.95508C3.11383 13.9102 0 10.7963 0 6.95508C6.80341e-05 3.11388 3.11387 0 6.95508 0H28.8906ZM17.3369 3.95117C16.7932 3.95117 16.3059 4.09687 15.876 4.3877C15.4462 4.67215 15.1079 5.07353 14.8613 5.5918C14.6148 6.10379 14.4913 6.70461 14.4912 7.39355C14.4912 8.07624 14.6148 8.68039 14.8613 9.20508C15.1142 9.72351 15.4593 10.1281 15.8955 10.4189C16.3317 10.7097 16.8182 10.8554 17.3555 10.8555C17.8992 10.8555 18.383 10.7132 18.8066 10.4287C19.2365 10.1379 19.5747 9.73325 19.8213 9.21484C20.0742 8.69642 20.2002 8.09245 20.2002 7.40332C20.2002 6.71426 20.0742 6.11019 19.8213 5.5918C19.5747 5.07351 19.2365 4.67214 18.8066 4.3877C18.3768 4.09691 17.8869 3.95121 17.3369 3.95117ZM21.7412 9.10059C21.4948 9.10067 21.2893 9.18681 21.125 9.35742C20.9608 9.52176 20.8789 9.73064 20.8789 9.9834C20.879 10.2235 20.9607 10.429 21.125 10.5996C21.2893 10.7702 21.4948 10.8554 21.7412 10.8555C21.9941 10.8555 22.2003 10.7703 22.3584 10.5996C22.5226 10.429 22.6044 10.2234 22.6045 9.9834C22.6045 9.7307 22.5225 9.52174 22.3584 9.35742C22.2003 9.18672 21.9941 9.10059 21.7412 9.10059ZM9.10449 6.14258L11.0576 10.751H12.2236L14.1777 6.14258H12.6416L11.6543 8.99512L10.6689 6.14258H9.10449ZM25.4854 3.95117C25.0177 3.95123 24.5975 4.05608 24.2246 4.26465C23.8516 4.47327 23.5543 4.75437 23.333 5.1084C23.1117 5.46245 23.001 5.86115 23.001 6.30371C23.001 6.72715 23.099 7.10643 23.2949 7.44141C23.4972 7.77017 23.7665 8.03252 24.1016 8.22852C24.4429 8.41808 24.8162 8.5127 25.2207 8.5127C25.2876 8.51269 25.3507 8.51006 25.4102 8.50586L23.7979 10.751H25.4854L27.373 8.00098C27.765 7.42565 27.9609 6.85319 27.9609 6.28418C27.9609 5.84172 27.8501 5.44629 27.6289 5.09863C27.414 4.74476 27.1199 4.4669 26.7471 4.26465C26.3741 4.05601 25.9532 3.95117 25.4854 3.95117ZM17.3369 5.26953C17.6213 5.26958 17.8651 5.35227 18.0674 5.5166C18.2695 5.67464 18.4239 5.91171 18.5312 6.22754C18.645 6.54362 18.7021 6.93554 18.7021 7.40332C18.7021 7.86476 18.645 8.2567 18.5312 8.5791C18.4239 8.89497 18.2695 9.13543 18.0674 9.2998C17.8651 9.45786 17.6239 9.53711 17.3457 9.53711C17.0679 9.53702 16.8247 9.45513 16.6162 9.29102C16.414 9.1267 16.2588 8.88625 16.1514 8.57031C16.0439 8.2542 15.9902 7.8614 15.9902 7.39355C15.9903 6.9259 16.0439 6.53379 16.1514 6.21777C16.2588 5.9018 16.414 5.66485 16.6162 5.50684C16.8248 5.34885 17.0651 5.26953 17.3369 5.26953ZM25.4854 5.25098C25.6812 5.25098 25.8586 5.29789 26.0166 5.39258C26.1747 5.48109 26.2982 5.60808 26.3867 5.77246C26.4752 5.93681 26.5195 6.12344 26.5195 6.33203C26.5195 6.53425 26.4752 6.71752 26.3867 6.88184C26.2982 7.03988 26.1746 7.16591 26.0166 7.26074C25.8585 7.35558 25.6813 7.40332 25.4854 7.40332C25.2896 7.40325 25.113 7.35548 24.9551 7.26074C24.797 7.16591 24.67 7.03989 24.5752 6.88184C24.4867 6.71753 24.4424 6.53423 24.4424 6.33203C24.4424 6.12347 24.4867 5.9368 24.5752 5.77246C24.67 5.60808 24.7936 5.48109 24.9453 5.39258C25.1032 5.29791 25.2833 5.25104 25.4854 5.25098Z" fill="white"/>
</svg>
